<?xml version="1.0" encoding="UTF-8"?><svg xmlns="http://www.w3.org/2000/svg" xmlns:xlink="http://www.w3.org/1999/xlink" height="391.8" preserveAspectRatio="xMidYMid meet" version="1.0" viewBox="-6.9 -5.3 294.3 391.8" width="294.3" zoomAndPan="magnify"><g id="change1_1"><path d="M133.9,81.8c-5.6,0.5-4.4-11.5-4.4-11.5S106.4,84.1,98.8,80c-7.6-4.1,0.4-13.9,0.4-13.9S74.6,88.4,60.4,86.8 c0,0-5.2,54.2,41.5,49.6c0.5,7.6,23,16.8,31.9-1.7c0-11,2.5-21.6,2.5-21.6s5.6,5.1,12.7-5.6C156.2,96.8,156.5,71.9,133.9,81.8z M39.4,29.8c0,0,8.7-15.3,2.9-17.9s-7.3,9-7.3,9S29.3,4.6,25.9,1.2s-8,0.8-3.8,12.6C15.2-0.7,4.7-4.4,13.2,17.1 C4.9,5-0.2,13,10.2,30.5c-8.7-13-17.1-7.3-1.5,9.1c7.2,6.5,8,8,8,8L39.4,29.8z M211.9,43.1c0,0,0.4-1.5,5.9-8.4 c11.5-17,3.1-20.9-2.7-7.9c6.6-17.2,0.8-23.6-4.7-11.6c4.4-20.5-4.5-15.6-8.5-1.6c2-11.2-2.8-14.2-5.3-10.7 c-2.5,3.6-5.2,18.9-5.2,18.9s-3.1-10.2-7.8-6.9c-4.7,3.3,6.6,19.3,6.6,19.3L211.9,43.1z" fill="#FAAE78"/></g><g id="change2_1"><path d="M78.5,226.6c0,0-26.3,57.4-22.5,71.6c3.8,14.2,20.9,60,20.9,60s22.5,17.3,46.2-6.6 c-5.3-30-10.4-53.4-10.4-53.4l9.9-25.2c0,0,25.4,41.5,47.3,45.8c21.9,4.3,50.1-27,73-68.9c1.5-8.4-8.6-24.7-23.9-23.6 c-22.9,19-37.9,35.2-37.9,35.2s-12.1-24.2-19.8-33.5C145.2,226.1,105.9,232.1,78.5,226.6z M111.2,100.5l-31.4,2.8 c0,0-0.2,14.4,12.4,16C104.9,120.9,112.4,110.3,111.2,100.5z M111.3,22.5c0,0,20.9-10.1,43.2,8.4c13.3,11,15.6,24.2,15.3,32.5 c1.6,11.2-1.6,8.8-1.6,8.8S163.2,40.2,111.3,22.5z" fill="#FFF"/></g><g id="change3_1"><path d="M217.3,39.8c-6.1,29-34.6,84.4-47.3,112.1c-2.5,35.9-2.5,73.5-2.5,73.5s-49.3,23.4-93.1,0c0,0,2-71.7,2-73.5 c-5.1-4.3-54.4-74-65.1-104c7.6-9.7,27.5-20.8,32.5-18c5.6,9.4,18.1,29.2,18.1,29.2l14.8,24.3c-5.1,2.8-10.2,4.6-14.6,4.2 c0,0-5.6,51.4,41.2,46.8c0.5,7.6,11.7,15.8,30.5,0.3l11.6-22.9c1.2-1,2.4-2.4,3.7-4.4c1.9-2.9,3.3-6.7,3.9-10.7l14.2-28.1 c0.8,2.3,1,3.7,1,3.7s1.3-3.5,1.6-8.8l16.3-32.3C186.2,31.2,202,25.1,217.3,39.8z" fill="#F2663D"/></g><g id="change4_1"><path d="M121.3,241.2c-1.1-1.5-2.6-2.5-4.1-3.4c-1.2-0.7-2.4-1.4-3.6-2.1c-1.7-0.1-3.9-0.3-5.5-0.4 c-0.5,0.2-0.9,0.4-1.4,0.5c-1.5,0.6-2.9,1.3-4.2,2.2c-2.2,1.4-5.3,3.4-5.9,6c-0.3,1-0.6,2.6-0.4,3.6c0.3,1.3,1.4,2.3,2.7,2.2 c1.5-0.1,2.9-1.4,4.1-2.3c1.2-0.9,2.3-1.9,3.3-3c1.2-1.3,2.3-2.7,3.3-4.2c0,0.3,0,0.7,0,1c-0.5,1.7-1.1,3.4-1.8,5 c-0.6,1.3-1.3,2.5-2,3.7c-0.4,0.6-0.8,1.2-1.3,1.8c-0.4,0.6-1,1.1-1.2,1.8c-0.2,0.9,0.7,1.5,1.4,1.1c0.6-0.3,1.1-1.1,1.5-1.6 c0.5-0.6,0.9-1.3,1.3-2c0.8-1.3,1.4-2.7,2-4.1c0.2-0.6,0.4-1.2,0.6-1.7c0.9,4.8,3.1,9.4,6.5,12.9c1,1,2.5-0.5,1.5-1.5 c-3.7-4.1-6-9.3-6.4-14.8c0.6,1.1,1.4,2.1,2.2,3.1c1.6,1.9,3.9,4,6.6,3.7C124,248.3,122.8,243.1,121.3,241.2z M108,239.2 c-0.8,1.3-1.7,2.6-2.7,3.7c-1.1,1.2-2.3,2.3-3.6,3.2c-0.6,0.5-1.3,0.9-2,1.3c-0.5,0.3-1.1,0.5-1.3-0.2c-0.1-0.3,0-0.6,0-0.9 c0.1-1.2,0.2-2.3,1.1-3.3c1.1-1.2,2.3-2.3,3.6-3.2c1.3-0.9,2.7-1.7,4.1-2.5c0.7-0.4,1.5-0.6,2.2-1C109,237.2,108.6,238.2,108,239.2z M120.7,246.3c-2,0.3-3.9-1.7-5-3.1c-1.5-1.9-2.6-4.2-3.4-6.6c2.1,0.9,4.2,1.8,6.1,3.1C120.4,241.2,122,243.8,120.7,246.3z M157.9,50.7c0,0-11.4-19.5-46.5-28.2s-43.1-3.1-43.5,0s11.8,7,11.8,7s-38.9,4-44.2,40.8s44.6,21.1,60.3,0 c-8.4,14,11.7,18.4,32.5,3.1c-2.4,11.7,5.6,10.2,5.6,10.2s20.4-6.7,18.2,13.9c-0.6,5.5-5.4,17.6-15.7,15.8 c-1.9,5.9-2.1,13.5-2.1,13.5s5.5-9.4,12.8-11.2C154.4,113.8,184.7,82.8,157.9,50.7z M146.7,92.5c-0.5-0.5-1.3-0.5-1.9-0.6 c-0.6-0.1-1.3-0.1-1.9,0c-1.3,0.1-2.6,0.4-3.7,1.1c-1.3,0.8-2,2-2.6,3.4c-0.3,0.7-0.5,1.5-0.8,2.3c-0.3,0.8-0.6,1.6-0.8,2.5 c-0.1,0.5,0.1,1,0.6,1.1c0.4,0.2,1,0,1.2-0.4c0.5-1,0.8-2.1,1.1-3.2c0.4,0.2,0.9,0.4,1.2,0.7c0.6,0.5,1,1,1.1,1.8c0,0,0,0.1,0,0.2 c0,0.1,0,0.2,0,0.3c0,0.1,0,0.1,0,0.2c0,0,0,0.2,0,0.2c0,0.1-0.1,0.2-0.1,0.3c0,0,0,0.1-0.1,0.1c-0.1,0.2-0.2,0.3-0.2,0.4 c-0.1,0.2-0.4,0.4-0.6,0.6c-0.1,0-0.1,0.1-0.2,0.1c0,0-0.1,0-0.1,0c0,0,0,0,0,0c-0.7-0.4-1.6,0.1-1.5,0.9c0.1,0.8,0.9,1.1,1.6,0.9 c1-0.2,1.8-0.9,2.3-1.7c1.1-1.8,0.7-4.1-0.8-5.4c-0.4-0.4-0.9-0.7-1.4-0.9c-0.2-0.1-0.5-0.2-0.7-0.2c0.4-1,0.8-2,1.7-2.7 c0.8-0.6,1.9-0.9,2.9-1c0.6-0.1,1.2-0.1,1.8,0c0.6,0,1.2,0.1,1.8-0.1C147,93.3,147,92.7,146.7,92.5z M139.2,113.5 c-3.2-1.7-7.1,2.4-9.3,4.2c-4.9,4.1-9.6,8.5-15,11.8c-1.7,1-3.4,2-5.2,2.7c-1.8,0.8-4.5,1.4-6.3,2.1c-0.1,0.5,0.1,1.7,0.4,2.1 c3.2,0,7.2-2,9.9-3.5c2.9-1.5,5.5-3.4,8.1-5.4c2.4-1.9,4.8-3.9,7-6c1.7-1.7,3.5-3.3,5.5-4.8c0.7-0.6,1.5-1.1,2.4-1.4 c0.3-0.1,0.6-0.2,0.8-0.2c0.2,0,0.3,0,0.3,0c0,0,0.2,0.1,0.1,0.1C139.1,116.2,140.5,114.2,139.2,113.5z M103,137.6 c-0.1,1.5,1.4,2.9,2.4,3.8c1.1,1,2.5,1.8,3.9,2.4c3.1,1.4,6.5,1.6,9.9,1.1c3.5-0.5,7.2-1.9,9.9-4.1c2-1.5,6.1-4.1,5.5-7.1 c-0.1-0.6-0.7-0.4-1.1,0c-3.4,3.1-4.2,3.9-6.8,5.3c-2.8,1.5-5.2,2.7-8.4,3c-2.7,0.3-5.4,0.3-7.9-0.7c-1.2-0.5-2.4-1.3-3.5-2.1 c-1-0.8-1.7-1.9-2.8-2.4C103.5,136.5,103,137.1,103,137.6L103,137.6z M93.7,180.4c3.2,7.2,7.4,13.6,12.8,19.4 c5.3,5.7,11.8,10.8,18.9,14c3.6,1.6,7.5,2.9,11.4,2.9c1.1,0,1.4-1.7,0.3-2c-3.3-0.7-6.5-1.6-9.6-3c-3.3-1.5-6.4-3.3-9.3-5.3 c-6.3-4.4-11.8-10-16.6-16c-2.6-3.3-5.1-6.7-6.9-10.5C94.4,179.2,93.4,179.8,93.7,180.4L93.7,180.4z M76.9,151.7c0-2.2,0-4.5,0-6.7 c0-1.1-0.1-2.2-0.1-3.2c-0.1-1.2,0-2.4-0.8-3.3c-0.4-0.4-1-0.2-1.3,0.2c-0.7,0.9-0.5,2.1-0.4,3.2c0.1,1.1,0.1,2.2,0.2,3.4 c0.2,2.2,0.4,4.4,0.6,6.6C75.2,152.9,76.9,152.9,76.9,151.7L76.9,151.7z M170.6,151.7c0.2-4.9,0.6-9.8,0.6-14.8 c0-2.5,0.1-4.9,0.1-7.4c0-1.2,0-2.5,0-3.7c0-1.1,0.1-2.1-0.5-3.1c-0.4-0.6-1.1-0.6-1.5,0c-0.6,0.9-0.5,2-0.5,3.1c0,1.2,0,2.5,0,3.7 c0,2.5,0,4.9,0.1,7.4c0.1,4.9,0.4,9.8,0.6,14.8C169.4,152.5,170.5,152.5,170.6,151.7L170.6,151.7z M142.8,199.4 c-3.3-0.8-6.5-2.1-9.6-3.5c-1.5-0.7-3-1.4-4.4-2.2c-0.8-0.4-1.5-0.8-2.3-1.3c-0.7-0.4-1.5-1-2.3-0.9c-0.6,0.1-1.1,0.6-0.9,1.2 c0.3,0.8,0.9,1.3,1.7,1.8c0.7,0.5,1.5,0.9,2.3,1.4c1.6,0.9,3.3,1.6,4.9,2.3c3.3,1.4,6.8,2.3,10.2,3.2 C143.5,201.7,144,199.8,142.8,199.4L142.8,199.4z M34.7,20.2c-0.3,0.7-0.5,1.4-0.8,2.2c-0.2,0.5-0.5,1.7-1.1,1.9 c-0.5,0.2-1.2,0.2-1.8,0.3c-0.6,0.1-1.3,0.3-1.9,0.6c-1.2,0.5-2.3,1.1-3.3,1.8c-1,0.8-1.9,1.9-2.2,3.2c-0.2,0.8,0.2,1.1,0.6,0.4 c0.8-1.5,1.5-2.4,2.7-3.2c1.1-0.8,2.5-1.1,3.8-1.5c0.6-0.2,1.3-0.3,1.9-0.4c0.6-0.1,1.2-0.2,1.5-0.8c0.4-0.6,0.6-1.3,0.8-2 c0.2-0.8,0.2-1.4,0.2-2.2C35.1,20,34.9,19.9,34.7,20.2L34.7,20.2z M13.6,19.1c0.4,0.8,0.8,1.7,1.3,2.5c0.4,0.8,0.8,1.5,1.3,2.3 c0.4,0.7,0.7,1.6,1.6,1.7c0.2,0,0.3-0.1,0.4-0.3c0.3-0.8-0.4-1.5-0.8-2.1c-0.5-0.7-0.9-1.5-1.4-2.2c-0.4-0.8-0.9-1.5-1.3-2.3 c-0.4-0.7-0.9-1.4-1.5-2.1c-0.3-0.3-0.5-0.1-0.5,0.3C12.9,17.4,13.3,18.4,13.6,19.1z M21.9,13.2c-0.1,0.3,0,1.3,0.1,1.6 c0.1,0.3,0.3,0.6,0.4,0.8c0.2,0.5,0.5,1,0.8,1.5c0.2,0.5,0.5,0.9,0.7,1.4c0.3,0.6,0.6,1.2,0.9,1.7c0.2,0.3,0.7,0.5,1,0.3 c0.4-0.2,0.4-0.6,0.3-1c-0.2-0.6-0.6-1.1-0.9-1.7c-0.3-0.5-0.5-1-0.8-1.4c-0.3-0.5-0.5-0.9-0.8-1.4c-0.2-0.3-0.3-0.5-0.5-0.8 c-0.2-0.3-0.2-0.5-0.5-0.7C22.2,13.2,21.9,13.1,21.9,13.2z M9.5,29.9c0.8,1.3,0.8,1.8,1.5,2.8c0.4,0.5,0.7,1,1.1,1.5 c0.2,0.3,0.4,0.5,0.6,0.8c0.3,0.4,0.5,0.7,1,0.7c-0.1,0-0.2-0.1-0.3-0.1c0.2,0.1,0.5,0.2,0.7,0c0.2-0.2,0.2-0.5,0.2-0.7 c0,0.1,0,0.2,0,0.3c0.1-0.5-0.1-0.8-0.4-1.1c-0.2-0.3-0.4-0.5-0.6-0.8c-0.4-0.5-0.8-1-1.2-1.5c-0.8-0.9-1.4-1.6-2.3-2.3 C9.5,29.2,9,29.1,9.5,29.9z M191.9,21.5c-0.1-0.3-0.4-0.2-0.4,0.2c0.1,0.8,0,1.4,0.2,2.2c0.2,0.7,0.4,1.4,0.8,2 c0.3,0.6,0.9,0.7,1.5,0.8c0.6,0.1,1.3,0.3,1.9,0.5c1.3,0.4,2.7,0.8,3.9,1.4c1.3,0.7,1.3,0.7,2.1,2.2c0.5,0.1,0.6,0.2,0.9,0.2 c-0.1-1-0.9-1.9-2.1-2.7c-1-0.8-2.1-1.4-3.3-1.9c-0.6-0.2-1.2-0.4-1.9-0.6c-0.6-0.1-1.3-0.1-1.8-0.3c-0.6-0.2-0.9-1.4-1.1-1.9 C192.4,23,192.2,22.3,191.9,21.5L191.9,21.5z M211.8,13.4c0-0.4-0.3-0.5-0.5-0.1c-0.4,0.8-0.6,1.6-0.8,2.4c-0.2,0.9-0.4,1.7-0.6,2.6 c-0.2,0.8-0.4,1.7-0.7,2.5c-0.2,0.7-0.7,1.6-0.2,2.3c0.1,0.1,0.3,0.2,0.5,0.2c0.8-0.3,0.9-1.3,1.1-2c0.2-0.8,0.4-1.7,0.6-2.5 c0.2-0.9,0.4-1.8,0.5-2.7C211.8,15.1,211.9,14.1,211.8,13.4z M201.5,13.1c-0.2,0.3-0.1,0.5-0.2,0.8c-0.1,0.3-0.1,0.6-0.2,0.9 c-0.1,0.5-0.3,1-0.4,1.6c-0.1,0.5-0.3,1.1-0.4,1.6c-0.1,0.6-0.3,1.2-0.4,1.8c-0.1,0.4,0.1,0.8,0.5,0.9c0.4,0.1,0.8-0.2,0.9-0.5 c0.2-0.6,0.2-1.3,0.4-1.9c0.1-0.5,0.2-1.1,0.3-1.6c0.1-0.5,0.2-1.1,0.3-1.6c0.1-0.3,0.1-0.6,0.1-0.9c0-0.3-0.1-1.3-0.3-1.6 C202,12.5,201.8,12.6,201.5,13.1z M215.7,25.3c-0.6,1-1.1,1.8-1.5,2.9c-0.3,0.6-0.5,1.2-0.7,1.7c-0.1,0.3-0.2,0.6-0.4,0.9 c-0.2,0.4-0.3,0.8-0.1,1.2c0-0.1-0.1-0.2-0.1-0.3c0,0.3,0.1,0.5,0.4,0.6c0.3,0.1,0.5,0,0.7-0.2c-0.1,0.1-0.2,0.1-0.3,0.2 c0.5-0.1,0.6-0.6,0.8-1c0.1-0.3,0.2-0.6,0.3-0.9c0.2-0.6,0.4-1.1,0.6-1.7c0.4-1.1,0.3-1.6,0.7-3.1C216.3,24.7,215.9,24.9,215.7,25.3 z M117.2,266.4c-2.1-2-4.5-3.8-6.9-5.4c-0.6-0.4-1.2-0.8-1.8-1.1c-0.5-0.3-1.5-0.7-2.1-0.4c-1.4,0.6,0.4,2.1,1,2.5 c2.4,1.6,4.8,3.2,7.1,5c2.5,2.1,4.8,4.5,7.4,6.6c0.4,0.4,1.1-0.1,0.8-0.6C121.3,270.5,119.3,268.4,117.2,266.4z M108.7,235.5 M81.5,91.1c-1.2-0.6-2.7-0.6-4.1-0.5c-1.5,0.1-3,0.5-4.4,1.1c-1.6,0.7-3.3,1.5-4.3,2.9c-0.5,0.7-0.3,1.7,0.3,2.3 c0.6,0.6,1.5,0.7,2.3,0.3c1.1-0.5,2-1.4,3.1-2c0.9-0.5,2-0.9,3.2-1.1c0.9-0.2,1.9-0.3,2.8-0.3c-0.1,0,0.2,0.1,0.3,0.1 c0,0,0.1,0.1,0.1,0.1c0.1,0.1,0.2,0.1,0.3,0.2c0.5,0.3,0.9,0.7,1.5,0.9c0.5,0.1,1.2-0.3,1.1-0.9C83.6,93,82.6,91.7,81.5,91.1z M120,91.2c-2-2.3-5-3.5-8-3.6c-1.5,0-3,0.2-4.3,0.7c-0.7,0.3-1.3,0.6-1.9,1c-0.7,0.5-1.1,1.2-1.6,1.8c-0.6,0.8,0.6,1.9,1.4,1.4 c0.5-0.3,1.1-0.5,1.7-0.7c0.5-0.3,0.9-0.4,1.5-0.6c1.2-0.4,2.1-0.5,3.3-0.4c2.2,0.1,4.3,1.1,5.7,2.8c0.6,0.7,1.7,0.6,2.3,0 C120.7,92.9,120.6,91.9,120,91.2z M81,360.6c0,0-12,5.4-23.4,8.2c-11.4,2.8-11.3,6.8-10.4,11.3c1.3,6.4,57,3.9,63.4,0 c6.5-3.9,6.1-8.9,5.2-22.3C109.7,361.2,98.3,366,81,360.6z M243.1,248.7c0,0,15.6,6.1,25.7,12.2c10.1,6.1,13.9,1.9,16.3-2.1 c2.3-4-38.4-41.6-45.8-43.4c-7.4-1.8-9.4,0.6-18.2,10.7C227.8,228,239.2,235.4,243.1,248.7z M114.1,265.5 c-2.9,5.7-5.9,11.4-8.6,17.2c-2.4,5.1-4.9,11.1-4.5,16.8c0.4,5.8,3.4,11,5.3,16.4c2,5.8,3.1,11.9,4.2,18c1.3,7.1,3.1,17.1,4.5,24.2 c0.9-0.4,1.1-0.6,1.5-1c-1.1-6.2-2.6-14.6-3.8-20.8c-1.1-5.9-2.2-11.8-3.8-17.6c-0.8-2.8-1.5-5.7-2.6-8.4c-1-2.6-2.1-5.2-2.9-7.9 c-0.8-2.9-1.1-5.8-0.5-8.8c0.6-2.9,1.9-5.7,3.2-8.4c3-6.3,5.9-12.7,8.8-19.2C115.5,265.4,114.5,264.8,114.1,265.5L114.1,265.5z M148.7,231.8c1.9,3,2.2,3.1,4.2,6.1c1.9,2.8,3.7,5.5,5.6,8.3c3.6,5.2,7.2,10.3,10.6,15.5c1.6,2.5,3.1,4.9,4.6,7.5 c0.7,1.3,1.4,2.6,2.1,3.9c0.3,0.6,0.6,1.4,1.1,1.9c1.1,1.1,2.9,0.3,4.1-0.2c2.2-1.1,4.2-2.7,6.1-4.2c2.8-2.2,5.5-4.6,8.2-7 c6.6-5.9,12.9-12.1,19.3-18.1c6.4-5.9,12.8-12.1,20-17.1c0.9-0.6,0-2.2-0.9-1.5c-6,4.2-11.4,9.2-16.7,14.2c-6.4,6-12.8,12-19.3,17.9 c-4.9,4.5-9.9,9.3-15.5,13c-0.8,0.5-1.7,1.1-2.5,1.5c-0.2,0.1-0.6,0.2-0.9,0.3c-0.1,0-0.5,0-0.4,0.1c-0.1,0-0.3,0-0.1,0 c-0.2,0-0.1,0-0.1-0.1c0.1,0.3-0.3-0.5-0.2-0.4c-0.4-0.7-0.7-1.4-1.1-2.1c-1.4-2.6-2.9-5.1-4.4-7.6c-3.5-5.7-7.4-11.2-11.2-16.6 c-2.1-3-4.2-6-6.3-9c-2.3-3.3-2.4-3.5-4.2-6.6C149.5,231.5,148.7,231.8,148.7,231.8z" fill="#2C275F"/></g></svg>