<?xml version="1.0" encoding="UTF-8"?><svg xmlns="http://www.w3.org/2000/svg" xmlns:xlink="http://www.w3.org/1999/xlink" height="382.6" preserveAspectRatio="xMidYMid meet" version="1.0" viewBox="231.0 204.8 156.1 382.6" width="156.1" zoomAndPan="magnify"><g><g><g><path d="M320.66,439.988l11.869,21.5c-12.49,7.14-57.5,7.32-86.41-4.14L320.66,439.988z" fill="#CF8557"/></g><g><g><g><g><path d="M273.33 436.088L270.29 470.349 263.26 549.469 249.49 547.889 245.44 468.878 243.47 430.549 242.6 413.568 263.84 429.129 263.85 429.129z" fill="#F5A384"/></g><g><path d="M273.33,436.088l-3.04,34.271c-2.45,0.44-4.92,0.77-7.41,0.93c-5.89,0.391-12.01-0.25-17.44-2.41 l-1.97-38.329c6.8-0.36,13.59-0.84,20.37-1.41h0.01L273.33,436.088z" fill="#E6886D"/></g></g><g><g><path d="M334.789 545.498L321.35 549.469 286.12 466.639 277.04 445.889 297.14 425.588 305.65 417.008 307.289 424.219 316.35 464.188z" fill="#F5A384"/></g><g><path d="M316.35,464.188c-0.949-0.22-1.91-0.4-2.87-0.54c-8.49-1.2-17.12,0.43-25.44,2.5 c-0.64,0.16-1.27,0.32-1.92,0.479l-9.08-20.75l20.11-20.3c3.39-0.43,6.77-0.89,10.139-1.369L316.35,464.188z" fill="#E6886D"/></g></g></g><g><g><path d="M346.01,579.288c-8.33,5.011-28.63-21.02-28.63-24.51c0-4.06,0.239-6.45,1.11-7.99 c0.489-0.88,1.199-1.489,2.189-1.979c4.3-1.51,10.49-2.96,13.66-0.601c3.029,2.261,7.1,7.42,10.24,13.17 C349.229,565.929,351.85,575.769,346.01,579.288z" fill="#913540"/></g><g><path d="M344.57,557.389c-0.431,4.01-1.521,7.58-3.281,8.479c-2.609,1.34-10.389-3.79-14.659-7.14 c-3.9-3.061-7.03-7.22-8.14-11.93c0.489-0.881,1.199-1.49,2.189-1.98c4.3-1.51,10.49-2.96,13.66-0.6 C337.369,546.479,341.43,551.639,344.57,557.389z" fill="#F5A384"/></g></g><g><g><path d="M246.78,584.889c9.39,2.529,21.74-28.09,20.78-31.44c-1.12-3.899-2.01-6.13-3.26-7.37 c-0.71-0.71-1.56-1.1-2.65-1.3c-4.55-0.26-10.9,0.04-13.3,3.19c-2.29,3.01-4.78,9.09-6.22,15.479 C240.01,572.938,240.2,583.118,246.78,584.889z" fill="#913540"/></g><g><path d="M242.13,563.448c1.52,3.73,3.55,6.87,5.49,7.25c2.88,0.57,8.95-6.5,12.13-10.899 c2.91-4.011,4.77-8.881,4.54-13.711c-0.71-0.71-1.56-1.1-2.65-1.3c-4.55-0.26-10.9,0.04-13.3,3.19 C246.06,550.979,243.57,557.059,242.13,563.448z" fill="#F5A384"/></g></g></g></g><g><path d="M377.13,345.928c-1.351-3.36-4.16-6.11-7.55-7.38c4.75,9.67,4.63,21.6-0.32,31.17 c-4.939,9.57-14.59,16.57-27.939,21.18c4.68-9.39,1.199-22.07-7.65-27.74c1.29,5.93-0.19,12.4-3.93,17.19 c1.25-5.32-1.34-10.98-5.32-14.73s-9.18-5.91-14.32-7.77c-5.14-1.85-10.43-3.51-15.03-6.49c-9.78-6.34-15.2-18.79-13.18-30.27 c-3.37,3.17-4.81,7.33-4.03,11.11c-3.31-3.06-3.9-8.27-2.49-12.55c1.4-4.28,4.48-7.8,7.69-10.97c3.21-3.16,6.67-6.13,9.23-9.83 c3-4.36,4.57-9.51,6.41-14.46c1.68-4.51,3.7-9.07,7.02-12.5c0.33-0.34,0.67-0.66,1.03-0.99c3.95-3.52,10.01-5.16,14.651-2.65 c8.67-4.8,20.81-1.68,27.229,6.16c5.89,7.21,7.21,17.42,4.71,26.42c-0.21,0.8-0.471,1.61-0.75,2.39 c-1.92,5.27-5.12,10.73-3.51,16.11c1.31,4.42,5.55,7.31,9.81,9.06c4.25,1.76,8.87,2.79,12.729,5.29 C375.49,336.178,378.539,340.818,377.13,345.928z" fill="#722E39"/></g><g><g><g><path d="M290.44 312.098L274.74 331.868 268.75 313.778 243.79 236.258 254.59 230.888 289.24 309.388z" fill="#F5A384"/></g><g><path d="M290.44,312.098l-15.7,19.76l-5.99-18.09c1.25,0.58,2.61,0.91,3.98,0.92c3.32,0.02,6.37-1.65,9.36-3.11 c2.25-1.1,4.69-2.11,7.14-2.2L290.44,312.098z" fill="#E6886D"/></g></g><g><g><path d="M256.21,233.078c3.64-4.14,6.63-13.22,7.01-15.11c0.53-2.67,0.08-9.26-1.35-10.81 c-1.17-1.27-3.83-1.84-5.6-2.15c-0.54-0.1-1.11-0.19-1.62-0.02c-1.07,0.36-1.37,1.61-1.86,2.8c-1.11-0.66-2.61-0.7-3.76-0.09 c-1.14,0.61-1.87,1.84-2.16,3.51c-1.27-0.74-3.06-0.6-4.18,0.33c-1.12,0.92-1.49,2.56-1.06,4.2c-0.9-0.59-2.21-0.36-3.05,0.31 c-0.84,0.66-1.29,1.66-1.59,2.65c-0.72,2.42-0.68,5.03,0.12,7.43c0.28,0.85,0.9,1.82,1.85,1.77c0.86-0.04,1.39-0.93,1.46-1.72 c0.07-0.8-0.14-1.61,0.01-2.4s0.9-1.59,1.74-1.4c0.74,0.16,1.07,0.95,1.22,1.81c-2.1,3.24-2.78,10.38,0.59,13.02 C247.26,236.868,253.67,235.448,256.21,233.078z" fill="#F5A384"/></g><path d="M258.37,226.828 c0.03-4.78,0.06-9.55,0.08-14.33c0-0.83,0-1.69-0.32-2.46c-0.32-0.77-1.05-1.43-1.88-1.4c-1.08,0.04-1.79,1.14-2.2,2.14 c-1.12,2.78-1.42,5.88-1.26,8.95c-3.4,1.73-5.45,5.78-4.83,9.55" fill="none" stroke="#C55453" stroke-linecap="round" stroke-miterlimit="10"/><path d="M247.29,212.028 c-0.43,2.72,0.56,7.43,3.31,6.96c0.77-0.13,1.7-1.01,2.13-2.86" fill="none" stroke="#C55453" stroke-linecap="round" stroke-miterlimit="10"/><path d="M242.13,216.598 c0.19,1.46,0.4,2.94,0.98,4.29c0.58,1.35,1.98,2.89,3.45,2.31c1.65-0.65,1.65-3.18,1.69-4.94" fill="none" stroke="#C55453" stroke-linecap="round" stroke-miterlimit="10"/></g></g><g><g><path d="M289.41,309.778c8.8,12.81,25.8,24.18,38.911,33.15c-0.851,16.77-12.091,29.18-21.661,40.45 c7.379,27.4,25.911,31.331,25.911,78.459c-18.4-27.579-63.521,15.94-101.571-0.029c0-47.26,18.78-78.16,29.46-91.82 C271.92,337.198,274.979,313.758,289.41,309.778z" fill="#FCB978"/></g><g><path d="M259.08,370.988c14.28-0.59,37.49,5.27,48.411,14.64l1.049-3.81c-11.579-9.92-34.579-15.29-47.619-14.31 L259.08,370.988z" fill="#CF7957"/></g><g><g><defs><g><path d="M289.41,309.778c8.8,12.81,25.8,24.18,38.911,33.15c-0.851,16.77-12.091,29.18-21.661,40.45 c7.379,27.4,25.911,31.331,25.911,78.459c-18.4-27.579-63.521,15.94-101.571-0.029c0-47.26,18.78-78.16,29.46-91.82 C271.92,337.198,274.979,313.758,289.41,309.778z" id="a"/></g></defs><clipPath id="b"><use overflow="visible" xlink:actuate="onLoad" xlink:href="#a" xlink:show="embed" xlink:type="simple" xmlns:xlink="http://www.w3.org/1999/xlink"/></clipPath><g clip-path="url(#b)" fill="none" stroke="#FFE3BF" stroke-miterlimit="10" stroke-width="4"><path d="M226.55,443.918 c11.62,6.521,25.92,6.061,38.96,3.28c13.03-2.78,25.6-7.67,38.8-9.5c13.2-1.83,27.771-0.09,37.7,8.79"/><path d="M232.67,418.318 c10.3,4.62,22.27,3.42,33.19,0.58s21.47-7.23,32.64-8.84c11.17-1.61,23.56,0.02,31.78,7.74"/><path d="M240.4,385.628 c7.54,3.75,12.88,5.92,27.94,5.27c14.33-0.62,38.09-6.18,53,8.73"/><path d="M258.14,357.258 c22.46-1.99,45.62,5.88,62.21,21.15"/><path d="M264.2,339.698 c22.67,0.94,44.871,10.57,61.05,26.48"/><path d="M270.7,322.408 c23.1,1.69,45.3,13.31,59.86,31.32"/></g></g></g></g><g><path d="M306.72,312.588l-4.09,4.78c-1.37,1.59-3.74,1.84-5.41,0.57l-4.57-3.5l2.66,9.8 c2.5,9.21,11.17,15.36,20.681,14.67l5.35-0.39l-3.65-4.19c-1.6-1.84-1.88-4.49-0.68-6.62l3.47-6.17L306.72,312.588z" fill="#E6886D"/></g><g><g><ellipse cx="299.122" cy="293.498" fill="#E6886D" rx="7.77" ry="6.43" transform="scale(-1) rotate(63.332 475.856 -484.966)"/></g><g><ellipse cx="344.752" cy="311.744" fill="#E6886D" rx="6.43" ry="7.769" transform="rotate(-94.198 344.754 311.75)"/></g><g><path d="M302.27,290.108c6.52-14.1,21.051-21.25,32.46-15.97c11.41,5.28,17.05,16.83,8.86,35.08 c-6.36,14.17-21.051,21.25-32.46,15.97C299.71,319.908,295.75,304.198,302.27,290.108z" fill="#F5A384"/></g><g><path d="M302.22,289.398c1.3-1.79,3.52-2.68,5.7-3.08c2.18-0.4,4.42-0.42,6.58-0.91c2.16-0.49,4.33-1.58,5.8-3.53 c-0.17,4.02,3.13,7.4,6.7,9.26c3.57,1.86,7.6,2.75,11.039,4.84c3.44,2.09,6.311,6.01,5.351,9.92c2.07-3.88,1.399-8.75-0.58-12.68 c-1.979-3.93-5.12-7.12-8.13-10.33s-6-6.59-7.57-10.7C317.88,274.269,309.229,278.809,302.22,289.398z" fill="#E6886D"/></g><g><path d="M341.41,313.528c9.68-27.54-20.16-14.95-19.2-37.84c-6.56,12.35-17.23,6.19-21.21,17.38 c-0.29-20.08,22.7-27.66,38.411-19.09C351.619,285.238,352.97,301.458,341.41,313.528z" fill="#722E39"/></g><g><path d="M353.35,300.818c0.37-5.53-0.74-11.29-2.6-16.55c-1.68-4.72-4.66-9.14-8.87-11.87 c-7.61-4.94-16.761-1.89-21.33-0.08c-2.94-2.6-6.49-2.88-9.72-2.21c-1.771,0.37-3.461,1.02-5.11,1.77 c0.33-0.34,0.67-0.66,1.03-0.99c3.95-3.52,10.01-5.16,14.651-2.65c8.67-4.8,20.81-1.68,27.229,6.16 C354.529,281.618,355.85,291.828,353.35,300.818z" fill="#AB564E"/></g><g><g fill="#221F36"><circle cx="312.15" cy="299.868" r="1.33"/><circle cx="330.689" cy="306.948" r="1.33"/></g><g fill="#823B43"><path d="M308.09,290.378c0.35-2.97,3.699-5.2,6.58-4.37c2.88,0.83,4.529,4.49,3.26,7.2 c-0.359-2-1.82-4.35-3.79-4.88C312.17,287.798,309.72,288.388,308.09,290.378z"/><path d="M328.66,298.428c1.47-2.85,5.729-3.75,8.229-1.74c2.5,2.01,2.53,6.36,0.06,8.41 c0.711-2.16,0.03-4.7-1.66-6.22C333.6,297.358,331,296.948,328.66,298.428z"/></g><path d="M319.72,302.418 c-1.351,1.41-2.06,3.42-1.89,5.37" fill="none" stroke="#C55453" stroke-linecap="round" stroke-miterlimit="10"/><g><path d="M314.08,310.309c3.529-0.12,7.09,0.44,10.439,1.86c-0.01,2.02-0.32,4.12-1.58,5.82 c-1.26,1.7-3.67,2.87-5.9,2.35c-2.139-0.49-3.549-2.38-3.92-4.29C312.76,314.148,313.24,312.198,314.08,310.309z" fill="#EFEFEF"/></g></g></g><g><g><g><path d="M380.34,326.918c1.76-2.15,3.52-4.31,5.28-6.46c0.51-0.63,1.05-1.35,0.92-2.21 c-0.16-1.03-1.301-1.8-2.33-1.86c-1.03-0.06-1.96,0.4-2.8,0.9c-2.871,1.71-5.32,4.06-7.141,6.85 C376.25,324.798,378.229,325.448,380.34,326.918z" fill="#E6886D"/></g><g><path d="M362.42,343.118c6.58-2.16,16.369-3.96,19.72-6.78c1.91-1.61,4.93-11.44,0.76-14.79 c-1.319-1.06-3.2-0.82-4.899,0.4c-0.58-1.03-1.78-1.71-2.891-1.64c-1.109,0.07-2.82,1.22-3.359,2.52 c-2.12-1.18-4.03-1.37-5.7,0.04c-1.67,1.41-2.25,3.97-1.61,5.75c-4.439,0.66-9.35,1.91-9.35,8.66 C357.63,340.019,359.89,341.188,362.42,343.118z" fill="#F5A384"/></g><path d="M372.31,324.108 c0.99,1.95,1.44,4.18,1.29,6.37" fill="none" stroke="#C55453" stroke-linecap="round" stroke-miterlimit="10"/><path d="M378.33,322.729 c1.6,1.69,2.18,4.28,1.47,6.51" fill="none" stroke="#C55453" stroke-linecap="round" stroke-miterlimit="10"/></g><g><g><path d="M364.5,341.539c-3.74,9.64-8.86,28.44-11.771,38.76c-2.92,10.31-7.52,14.7-11.989,13.48 c-3.761-1.02-9.03-6.58-14.58-13.35c-2.851-3.47-5.76-7.26-8.59-10.93c1.159-11.15,3.479-17.5,9.77-26.78 c0.52,0.28,1.04,0.67,1.529,1.17c5.381,5.3,8.851,21.75,11.24,26.3c5.01-8.97,10.08-24.65,15.15-34.18 C358.939,336.218,361.289,340.138,364.5,341.539z" fill="#F5A384"/></g><g><path d="M326.16,380.428c-2.851-3.47-5.76-7.26-8.59-10.93c1.159-11.15,3.479-17.5,9.77-26.78 c0.52,0.28,1.04,0.67,1.529,1.17C323.57,355.178,322.699,368.448,326.16,380.428z" fill="#E6886D"/></g></g></g></g></svg>